<svg xmlns="http://www.w3.org/2000/svg" width="256" height="256"><path fill-rule="evenodd" d="M2.804 128C2.804 58.66 58.02 2.162 127.358 2.162S253.196 58.661 253.196 128s-56.499 125.838-125.838 125.838C58.018 253.838 2.804 197.339 2.804 128m10.273 0c0-62.919 51.362-115.566 114.281-115.566 64.203 0 115.565 52.647 115.565 115.566 0 62.919-51.362 115.565-115.565 115.565-62.919 0-114.281-52.646-114.281-115.565z"/><path fill-rule="evenodd" d="M27.201 128c0-21.829 6.42-41.09 17.977-57.783h17.977l7.704 7.705v100.156l-7.704 7.705H45.178C33.622 169.09 27.201 149.829 27.201 128M58.02 54.809c17.977-17.977 42.374-28.25 70.623-28.25 26.965 0 51.362 10.273 69.339 28.25h-57.782v15.408h7.704v7.705l-38.522 38.521h-7.704V79.206l7.704-8.989h15.409V54.81H58.019m143.814 3.852c16.693 17.977 26.966 42.374 26.966 69.339 0 21.829-6.421 41.09-17.977 57.783h-16.693l-61.635-69.34 46.226-46.226h23.113V58.661m-3.852 142.53c-17.977 17.977-42.374 28.25-70.623 28.25-26.965 0-51.362-10.273-69.34-28.25h66.772v-15.408h-15.409l-7.704-7.705v-38.521h7.704l53.931 61.634h34.669z"/></svg>
